/* XPM */
static char *bca0efba3d344ee480e0c6dc56123c77hWiG0Xbe9tldzISF[] = {
/* columns rows colors chars-per-pixel */
"64 64 17 1 ",
"  c None",
". c black",
"X c gray9",
"o c #1B2A26",
"O c #3D2B29",
"+ c #66361D",
"@ c #723530",
"# c #58403C",
"$ c #3E4E43",
"% c #4C6051",
"& c #5D7764",
"* c #902928",
"= c #AB3533",
"- c #BE4644",
"; c #99736D",
": c #659473",
"> c #BD928B",
/* pixels */
"                                                                ",
"                                                                ",
"                                                                ",
"                                                                ",
"                                                                ",
"                                                                ",
"                                                                ",
"                                                                ",
"                                                                ",
"                                                                ",
"                                                                ",
"                                                                ",
"                                                                ",
"                                                                ",
"                                                                ",
"                                          .........             ",
"                                         .#########.            ",
"                                         .#########....         ",
"                                         .#####>>>>####.        ",
"                                      ....#####>>>>####....     ",
"                                     .####>>>>>>>>>;;;;OOOO.    ",
"                 .........    ........####>>>>>>>>>;;;;OOOO.    ",
"                .#########.  .++++++++====*****;;;;OOOOOOOO.    ",
"             ....#########....++++++++====*****;;;;OOOOOOOO.    ",
"            .####>>>>>;;;;++++****====----@@@@@OOOO........     ",
"            .####>>>>>;;;;++++****====----@@@@@OOOO.            ",
"            .####>>>>>;;;;++++****====----@@@@@OOOO.            ",
"            .####;;;;;============----====ooooo.                ",
"            .####;;;;;============----====ooooo.                ",
"            .++++=============----====****ooooo.                ",
"         ....++++=============----====****ooooo.                ",
"        .$$$$&&&&&&&&&****----====****@@@@ooooo.                ",
"        .$$$$&&&&&&&&&****----====****@@@@ooooo.                ",
"        .$$$$$$$$&&&&&::::****====@@@@oooo.....                 ",
"     ....$$$$$$$$&&&&&::::****====@@@@oooo.                     ",
"    .$$$$&&&&&&&&$$$$$&&&&&&&&@@@@@@@@oooo.                     ",
"    .$$$$&&&&&&&&$$$$$&&&&&&&&@@@@@@@@oooo.                     ",
"    .$$$$&&&&&&&&$$$$$&&&&&&&&@@@@@@@@oooo.                     ",
"    .$$$$XXXX%%%%%%%%%&&&&$$$$@@@@oooo.                         ",
"    .$$$$XXXX%%%%%%%%%&&&&$$$$@@@@oooo.                         ",
"    .$$$$%%%%....#####$$$$$$$$oooo.                             ",
"    .$$$$%%%%.  .#####$$$$$$$$oooo.                             ",
"    .$$$$....   .;;;;;####oooo....                              ",
"    .$$$$.   ....;;;;;####oooo.                                 ",
"     ....   .;;;;;;;;;........                                  ",
"            .;;;;;;;;;.                                         ",
"             .........                                          ",
"                                                                ",
"                                                                ",
"                                                                ",
"                                                                ",
"                                                                ",
"                                                                ",
"                                                                ",
"                                                                ",
"                                                                ",
"                                                                ",
"                                                                ",
"                                                                ",
"                                                                ",
"                                                                ",
"                                                                ",
"                                                                ",
"                                                                "
};
