/* XPM */
static char *b6b346cdbe4e490da2f720fba2486556MluipRhm0cnzqYkk[] = {
/* columns rows colors chars-per-pixel */
"64 64 131 2 ",
"   c None",
".  c black",
"X  c #0B0F0E",
"o  c #0F100D",
"O  c #1C1305",
"+  c #15120E",
"@  c #1B120D",
"#  c #1C190A",
"$  c #0A0A1D",
"%  c #150D15",
"&  c #1C0B12",
"*  c #160F1B",
"=  c #1A0F1A",
"-  c #0F1615",
";  c #0F131C",
":  c #0B181A",
">  c #151314",
",  c #1A1413",
"<  c #151A14",
"1  c #1B1B14",
"2  c #15141A",
"3  c #19141C",
"4  c #151818",
"5  c #1C1B1D",
"6  c #210E03",
"7  c #211800",
"8  c #281903",
"9  c #25120E",
"0  c #221613",
"q  c #251B12",
"w  c #291816",
"e  c #1D2006",
"r  c #24200A",
"t  c #1B0E20",
"y  c #141526",
"u  c #1A1322",
"i  c #121823",
"p  c #1E1921",
"a  c #131429",
"s  c #18122C",
"d  c #562B06",
"f  c #5D2F01",
"g  c #5E3301",
"h  c #563509",
"j  c #5C340A",
"k  c #642F02",
"l  c #622D0E",
"z  c #613301",
"x  c #693600",
"c  c #603208",
"v  c #6B430E",
"b  c #7B4600",
"n  c #774A06",
"m  c #7A4801",
"M  c #73430B",
"N  c #79450A",
"B  c #77490A",
"V  c #824E16",
"C  c #9E7402",
"Z  c #9E7509",
"A  c #9E6F15",
"S  c #9D7115",
"D  c #9E731A",
"F  c #A86F04",
"G  c #A46E0A",
"H  c #A16A0D",
"J  c #A36F0A",
"K  c #A96F0C",
"L  c #A57300",
"P  c #A47301",
"I  c #A67300",
"U  c #A77300",
"Y  c #A67201",
"T  c #A77201",
"R  c #A47302",
"E  c #A57302",
"W  c #A47303",
"Q  c #A57303",
"!  c #A67202",
"~  c #A67203",
"^  c #A17500",
"/  c #A17501",
"(  c #A37400",
")  c #A27500",
"_  c #A37500",
"`  c #A37401",
"'  c #A17600",
"]  c #A07700",
"[  c #A07502",
"{  c #A17503",
"}  c #A37403",
"|  c #A47400",
" . c #A57400",
".. c #A47500",
"X. c #A47401",
"o. c #A67401",
"O. c #A57600",
"+. c #A77502",
"@. c #A57204",
"#. c #A67204",
"$. c #A77106",
"%. c #A57206",
"&. c #A17406",
"*. c #A97100",
"=. c #AA7100",
"-. c #AB7100",
";. c #A87200",
":. c #AC7000",
">. c #AC7100",
",. c #AE7001",
"<. c #A87400",
"1. c #A87007",
"2. c #A27108",
"3. c #A67109",
"4. c #A47208",
"5. c #A07409",
"6. c #A0740A",
"7. c #A0730D",
"8. c #A3720D",
"9. c #A1720F",
"0. c #A5710D",
"q. c #A87009",
"w. c #AC750A",
"e. c #A8740E",
"r. c #B17302",
"t. c #B27B0F",
"y. c #A47610",
"u. c #A47611",
"i. c #A07315",
"p. c #AD731A",
"a. c #AF7418",
/* pixels */
"                                                                                                                                ",
"                                                                                                                                ",
"                                                                                                                                ",
"                                                                                                                                ",
"                                                                                                                                ",
"                                                                                                                                ",
"                                                                                                                                ",
"                                                                                                                                ",
"                                                                                                                                ",
"                                                                                                                                ",
"                                                                                                                                ",
"                                                                                                                                ",
"                                                                                                                                ",
"                                        a , , . a a                             o @ . . . . . X                                 ",
"                            . . . 2 2 6 | | | I I I 9 # . .               . @ @ A I I I I I I S 2 2 4 . . .                     ",
"                      3 3 e 5.5.8.I I I I I I I | | I I #.#.$       2 2 1 5._ _ | I I I I I I I I I I &.&.D u u *               ",
"            . . . 4 + _ _ I | | I I I I I I I I I I I I 8.8.I 6 6 > H H #.I I I I I I I I I I I I I I I I I | | y.> u u         ",
"          , I I I I I I I I I I I I I I I I I 1.I I w 3 b b b b b g d d , > I I I I I I I I I I I I I I I I I I I I Z Z 4       ",
"            5 I I I I I I I I I I 4.4.#._ I I 1 + + M b b b b b b z z z z z , , , _ _ C _ _ _ | I I I I I I 0.0.I @ 5 5         ",
"              . . , # I I I I I I r r > b b b b b b b b b b b b b z z z z c z z z f f k , , , ,.I I I I I I u u                 ",
"                      2 2 I @ @ > b b b b b b b b b b b b b b b b z z z z z z z z z z z z z z 2 , , 2., , >                     ",
"                        2 I @ @ > b b b b b b b b b b b b b b b b z z z z z z z z z z z z z z 2 , , 2.,                         ",
"                        2 > N N N b b b b b b b b b b b b b b b b z z z z z z z z z z z z z z z z z : >                         ",
"                    . , , 4.# # 4 b b b b b b n b b b b b b b b b z z z z z z z z z z j g g g u , , r.8 8 +                     ",
"                  2 _ | | | ;.;.;.I I I O 4 4 b b b b b b b b b b z z z z z z z z = = , C C C _ _ _ <._ _ ,.1 1                 ",
"              . . a.| I I I I I I I I _ I I _ & y y v b m m b b b z z z j f 4 4 2 ,.,.I I I I I I I I I I I C C <               ",
"            s I I I I I I I I I I I I I I I I I I I i.I O O 3 N N , , , C C I I I I I I I I I I I I I I I I I I | >             ",
"        . . I I F I I I I I I I I I I I I I I I ;.;.I I I I Z + + > I I #.I I I I I I I I I I I I I I I I I I I I w.2           ",
"      < p.p.| I I I I I I I I I I I I I I I I I I I I I I I I + + > I I #.I I I I I I I I I I I I I I I I I I I I w.2           ",
"      < p.p.| I I I I I I I I I I I I I I I I I I I I I I & g , , c > > ;.I I I I I I I I I I I I I I I I I _ _ _ #             ",
"        2 2 S y.y._ | I I I I I I I I I I I I I I I I J J j z , , z j j O _ I I I I I I I I I I _ _ _ _ _ e., , >               ",
"            . . . > 4 8.8.K _ I I I _ I I I I | C I 0 g g z z 2 2 m z z c ; G G ;.I I q.;.;.t.I p p * 2 2 .                     ",
"                      i i t I I I I I I I I I | I I l z z z g > > m z z z x q q | I I C Z Z 7 3 g g k @                         ",
"                        i j z z z O O 2 I _ _ % j j g z z N b > > b b b N z c c & 3 3 h j j z z g g g *                         ",
"                        2 z z z z z z j , 4 4 g z z z z z b b 2 2 b b b b z z z z z z z z z z z b b b 4                         ",
"                        2 b b b b g g z z z z c c c B b b b b 2 2 b b b b b n n z z z N b b b b b b b 4                         ",
"                        2 b b b b g g z z z z c c c B b b b b 2 2 b b b b b n n z z z N b b b b b b b 4                         ",
"                        2 b b b b b b b z z z z z z b b b b b 2 2 b b b b b b b b b b b b b b b b b b 4                         ",
"                        2 b b b b b b b b b b b b b b b b b b 2 2 b b b b b b b b b b b b b b b b b b 4                         ",
"                        2 b b b b b b b b b b b b b b b b b b 2 2 b b b b b b b b b b b b b b b b b b 4                         ",
"                        2 b b b b b b b b b b b b b b b b b b 2 2 b b b b b b b b b b b b b b b b b b 4                         ",
"                        2 b b b b b b b b b b b b b b b b b b 2 2 b b b b b b b b b b b b b b b b b b 4                         ",
"                        2 b b b b b b b b b b b b b b b b b b 2 2 b b b b b b b b b b b b b b b b b b 4                         ",
"                        2 b b b b b b b b b b b b b b b b b b 2 2 b b b b b b b b b b b b b b b b b b 4                         ",
"                        2 b b b b b b b b b b b b b b b b b b 2 2 b b b b b b b b b b b b b b b b b b 4                         ",
"                        2 b b b b b b b b b b b b b b b b b b 2 2 b b b b b b b b b b b b b b b b b b 4                         ",
"                          4 . . . b b b b b b b b b b b b b b 2 2 b b b b b b b b b b b b b b . . . i                           ",
"                                  > > , b b b b b b b b b b b 2 2 b b b b b b b b b b b , , ,                                   ",
"                                        u > . . . . m b b b b 2 2 b b b b b N N b 2 2 -                                         ",
"                                                    5 + + V b + + b b b > 0 . . .                                               ",
"                                                          p 3 3 3 3 2 2                                                         ",
"                                                                                                                                ",
"                                                                                                                                ",
"                                                                                                                                ",
"                                                                                                                                ",
"                                                                                                                                ",
"                                                                                                                                ",
"                                                                                                                                ",
"                                                                                                                                ",
"                                                                                                                                ",
"                                                                                                                                ",
"                                                                                                                                ",
"                                                                                                                                ",
"                                                                                                                                "
};
