/* XPM */
static char *dc416a23da7242cae6fb1bb43d2d830eafAcqDI4xdqqTniA[] = {
/* columns rows colors chars-per-pixel */
"64 64 196 2 ",
"   c #170000",
".  c #1D0000",
"X  c #220000",
"o  c #2C0100",
"O  c #330300",
"+  c #380500",
"@  c #340B00",
"#  c #3B0C00",
"$  c #361404",
"%  c #3D1400",
"&  c #3F1C07",
"*  c #3F1508",
"=  c #351808",
"-  c #3C1B0B",
";  c #332017",
":  c #3D2416",
">  c #420D00",
",  c #480F00",
"<  c #441500",
"1  c #441A01",
"2  c #4B1C03",
"3  c #4D1907",
"4  c #451B0D",
"5  c #441D11",
"6  c #4D1F12",
"7  c #472006",
"8  c #4D2104",
"9  c #44230D",
"0  c #4B2209",
"q  c #532202",
"w  c #53220B",
"e  c #442110",
"r  c #4D2214",
"t  c #432318",
"y  c #4E271B",
"u  c #49291A",
"i  c #532514",
"p  c #552810",
"a  c #5B2C14",
"s  c #512619",
"d  c #532A1C",
"f  c #592B1A",
"g  c #583018",
"h  c #6D300A",
"j  c #623414",
"k  c #64351D",
"l  c #693818",
"z  c #7C3E17",
"x  c #653821",
"c  c #6B3D21",
"v  c #7B401E",
"b  c #65402F",
"n  c #6F422C",
"m  c #7D4524",
"M  c #73452E",
"N  c #7D4B2B",
"B  c #694433",
"V  c #6F4A37",
"C  c #774A34",
"Z  c #76513C",
"A  c #79533E",
"S  c #7B5844",
"D  c #88431B",
"F  c #854C27",
"G  c #904F28",
"H  c #985126",
"J  c #96542B",
"K  c #9F5C2F",
"L  c #8C4F33",
"P  c #8D5735",
"I  c #965732",
"U  c #955E37",
"Y  c #9C5C34",
"T  c #965F38",
"R  c #9C5F3B",
"E  c #A55E35",
"W  c #A55F39",
"Q  c #9D643C",
"!  c #A0612F",
"~  c #A56233",
"^  c #AC6435",
"/  c #AB6937",
"(  c #A4643B",
")  c #AB653A",
"_  c #A7683F",
"`  c #AD6A3C",
"'  c #B26B35",
"]  c #B46D3C",
"[  c #B96F3E",
"{  c #B5713E",
"}  c #BA733E",
"|  c #BF793E",
" . c #C0733D",
".. c #9E6340",
"X. c #9F6941",
"o. c #A36641",
"O. c #AB6740",
"+. c #A46B42",
"@. c #AB6C44",
"#. c #A76F49",
"$. c #B36F43",
"%. c #AD7245",
"&. c #AC734B",
"*. c #B57344",
"=. c #BB7543",
"-. c #B77A46",
";. c #BD7945",
":. c #B4754A",
">. c #BA7649",
",. c #B57A4C",
"<. c #BC7B4B",
"1. c #AC7355",
"2. c #AE7954",
"3. c #AF7558",
"4. c #AF7B59",
"5. c #B57B52",
"6. c #BC7E51",
"7. c #B1775A",
"8. c #B17A58",
"9. c #BA7E5B",
"0. c #C07744",
"q. c #C27B46",
"w. c #C27D4B",
"e. c #C87F4B",
"r. c #C27F51",
"t. c #BE814D",
"y. c #BE8253",
"u. c #B7815F",
"i. c #BE845A",
"p. c #BE8561",
"a. c #BE8A62",
"s. c #B2896B",
"d. c #BE8C6A",
"f. c #BC906E",
"g. c #C58145",
"h. c #C4814D",
"j. c #C9824D",
"k. c #C9844E",
"l. c #CC894E",
"z. c #D08C4F",
"x. c #C18351",
"c. c #C28551",
"v. c #C48453",
"b. c #C18355",
"n. c #C48555",
"m. c #C98350",
"M. c #CA8651",
"N. c #CA8652",
"B. c #C68855",
"V. c #CB8952",
"C. c #CD8A52",
"Z. c #CA8955",
"A. c #CC8A54",
"S. c #CE8D56",
"D. c #C58659",
"F. c #C9875A",
"G. c #C68858",
"H. c #C68A5B",
"J. c #CC8C5A",
"K. c #D18C55",
"L. c #D18E5A",
"P. c #CE9057",
"I. c #CE915C",
"U. c #D39057",
"Y. c #D3925C",
"T. c #D9955D",
"R. c #DD995E",
"E. c #C18761",
"W. c #C48C62",
"Q. c #CD8F60",
"!. c #C58D69",
"~. c #D38F60",
"^. c #CC9262",
"/. c #C7916B",
"(. c #CB956D",
"). c #CF9969",
"_. c #D39462",
"`. c #D99563",
"'. c #D69864",
"]. c #DC9A64",
"[. c #D0966E",
"{. c #D49B6A",
"}. c #DC9D6B",
"|. c #C59672",
" X c #C29877",
".X c #CD9B74",
"XX c #D39D72",
"oX c #E09C66",
"OX c #E19D69",
"+X c #DCA06E",
"@X c #D7A172",
"#X c #DCA374",
"$X c #E2A26D",
"%X c #E8A568",
"&X c #E3A470",
"*X c #FFBE90",
/* pixels */
"O O # < # # o O O + O < < < < < # o o # # 1 # > < < 2 2 8 2 2 < < % 2 1 1 1 1 < # o o o @ @ # @ 1 @ @ @ 0 7 1 % % % 1 1 & 9 9 9 ",
"w.q.k.m.m.M.k.k.h.V.C.C.k.h.;.w.w.w.;.<.w.h.h.M.v.w.h.h.h.t.h.t.n.h.h.h.h.t.c.h.x.x.:.,.y.y.n.b.6.6.b.y.y.y.b.y.y.i.y.2.5.5.&.#.",
"q.*.*.*.;.;.;.;.q.m.j.h.j.;.=.F.h.M.Z.h.h.h.M.V.S.S.S.Z.Z.v.v.v.t.<.t.<.t.t.<.t.t.-.Q <.x.c.y.x.y.b.y.y.y.5.6.6.y.6.%.%.+.+.+.X.",
"j.q.w.e.e.m.m.w.h.C.h.j.M.M.{ D M.k.C.C.A.L.V.k.C.S.V.M.M.Z.Z.v.c.v.v.B.v.t.c.v.v.t.<.y.<.t.c.B.G.G.y.y.y.6.,.6.,.:.,.&.&.+.&.#.",
"w.;.m.w.k.w.j.e.e.e.w.w.w.O.Y E w.h.M.M.w.M.A.Z.M.h.M.h.h.h.h.h.<.<.h.h.h.t.<.<.c.<.<.>.<.n.n.x.G.x.b.:.<.i.6.:.%.%.@.%.+.&.Q U ",
";.{ ' } =.w.m.;.;.h.h.] m.>.$.=.j.C.C.K.L.K.A.Z.h.V.Y.S.h.<.;.<.w.c.t.t.c.c.t.<.<.t.h.h.h.x.c.J.n.J.:.b.( b.t.<.6.,.:.:.%.Q Q m ",
"q.;.` *.w.m.;.] j.w.*.w.j.) v.=.=.j.j.j.C.h.h.M.;.<.M.<.w.M.M.V.m.h.h.v.c.h.x.c.c.B.Z.Z.B.Z.n.B.J.n._ +.Y ( :.*.%.,.%.@.( Q Q U ",
"*.` ;.h.j.w.q.h.k.w.<.=.j.<.*.;.w.q.e.K.C.C.M.j.j.*.=.w.k.M.M.h.Z.>.:.<.>.>.*.>.*.-.<.x.<.>.6.6.@.G.5.:.I :.*.:.*.*.@.O.+.T +.X.",
"q.q.;.w.*.$.C.k.j.w.>.w.h.h.*.>.w.C.M.j.j.h.j.j.h.h.h.h.<.m.<.w.<.>.>.>.>.>.>.>.:.` x.v.<.<.x.y.<.n.<.:.G.n.n.D.6.<.:.:.@.@.Q o.",
"e.*.*.;.C.C.w.k.w.;.=.C.K.w.` M.L.C.C.C.A.h.w.h.j.C.Z.A.Z.Z.A.Z.M.h.h.h.v.Z.G.B.v.x.n.J.b.x.x.b.b.6.D.R <.J.y.y.6.6.,.@.6.y.5.&.",
"C.q.} w.h.l.h.] C.j.=.;.A.*.:.w.=.M.j.h.j.M.h.h.M.v.Z.v.m.v.m.J.J.V.Z.Z.Z.B.v.c.x.<.h.c.v.J.Z.J.n.*.D.( Y <.D.D.,.*.%.+.W.i.5.,.",
"j.e.C.k.k.k.l.h.h.C.C.M.;.$.@.q.q.M.C.M.h.v.h.h.h.Z.J.J.Z.v.B.x.>.t.t.h.h.h.v.h.h.Z.S.L.L.A.v.Z.S.Y.J.J.` x.n.x.t.y.i.,.+.:.:.:.",
"* r 5 6 6 r i i r s t 5 t : ; : u t y y d y d s d y y y d d d d r r s s s s i i s i i r r 6 6 4 4 5 r e - = - - & 4 e 4 @ $ $ $ ",
"M.C.k.A.w.j.A.A.z.l.h.M.C.T.K.R.U.C.K.T.M.A.L.Y.U.T.T.R.T.Y.T.T.Y.J.V.P.I.Y.I.J.J.h.T.I.Y.Y.Y.I.I.I.}.}.}.{.{.`.^.^.G.G.J.B.y.y.",
"l.z.l.;.h.C.S.l.l.l.;.w.h.k.h.K.A.<.n.V.S.h.S.U.U.C.C.S.S.C.S.C.V.A.J.P.B.V.S.v.h.M.S.S.V.A.S.V.L.Y.I._._.I.I.J.B.c.y.c.c.y.,.<.",
"l.K.l.` C.S.l.l.S.K.M.w.C.S.S.K.C.*.T.h.v.S.U.C.S.S.V.C.l.V.S.S.S.V.I.I.Z.J.S.B.h.A.S.S.S.S.Z.V.Y.T.'.Y.'.`._.I.S.I.B.B.G.c.6.6.",
"l.K.l.` C.S.l.l.S.K.M.w.C.S.S.K.C.*.T.h.v.S.U.C.S.S.V.C.l.V.S.S.S.V.I.I.Z.J.S.B.h.A.S.S.S.S.Z.V.Y.T.'.Y.'.`._.I.J.I.G.B.B.c.6.y.",
"C.k.q.;.h.h.h.h.k.h.;.C.M.k.h.C.A.h.q.K.L.C.M.h.h.h.M.M.C.v.v.h.h.h.A.V.A.V.S.v.<.L.A.Z.A.S.A.S.Y.Y.`.Y.I.J.J.J.J.n.x.n.n.c.<.,.",
"k.k.w.M.M.A.M.k.M.h.A.K.C.h.h.K.L.q.M.j.A.C.A.A.A.M.A.A.M.V.V.V.h.M.A.A.Z.A.`.J.J.Y.L.Y.Z.A.Z.M.S.Z.*.Y.I.I.J.I.J.n.^.J.n.G.n.y.",
"K.;.w.A.A.K.M.h.V.w.A.k.h.k.w.k.A.*.Y C.C.V.C.A.Z.M.M.h.h.M.V.A.S.T.Y.Y.S.A.{ v.J.A.Z.M.Z.S.Z.Z.Z.*.<.`.Y.I.J.J.B.J.J.G.n.n.n.i.",
"j.w.w.V.K.K.M.w.S.U.C.U.K.K.C.} w.<.r.T.U.A.l.h.k.A.A.L.S.L.S.L.L.Y.Y.L.Y.S.I.I.I.Z.h.v.S.Z.M.S.J.M.I _._._._._._.J.J.Q.Q.G.G.G.",
"C.M.m.M.M.A.A.w.V.V.V.C.M.C.k._.M.w.M.A.Z.A.A.S.K.S.A.M.Z.M.M.M.M.S.M.M.Z.S.S.J.I.S.Z.A.v.].*.S.S.S.6.J.I.J._.J.J.J.%.G.G.G.G.G.",
"M.h.M.C.V.w.M.V.S.S.k.V.M.C.M.A.v.h.J.M.M.h.A.V.M.V.A.S.J.S.L.Y.L._.T.Y.`.I.`.Y.`.Y.Y.`._.{.t.Y.'._.D.y.^.}.{.+X'.}.Q.'._.^.W.G.",
"L.V.A.C.C.Y.Y.K.K.S.S.K.K.L.Y.A.K.v.J.`.Y.L.L.L.L.S.L.Y.D.J.L.L.L.J.S.S.J.I.Y.Y._.`.].].'.}.].J.`.`._.W.^.{.+X}.}.#X{.}.{.{.{.^.",
"A.A.h.k.h.K.U.Y.Y.S.K.U.U.K.Y.Y.v.J.J.n.S.A.Y.Y.Y.T.L.S.Y.T.`.T.`.J.T.T.T.Y.`.I.J.Y.`.`.`.}.'.S.Y.I.'.i.^.J.'.{.}._._.J.G.J.^.^.",
"&.&.8.8.1.3.1.7.7.3.9.p.E.i.p.p.!.u.E.!./.).^.).^.{.{.{.^.{.@XXX#X[.).(.[.XX[.XX[.(.(././..X.Xa.(.(.(..Xs. Xf..X.XXX.X.X|.d.d.d.",
"Y.U.T.T.Y.U.k.C.C.K.T.T.T.T.T.].].].].].].].}.`.].`.].`.`.`.`.].`.OX].oXOX].OX}.}.$X}.].].].$X$X`.}.&X}.$X}.}.}.'.`._.J.{._.^.^.",
"=.=.=.=.w.=.=.*.*.] ] q.q.j.j.C.A.C.M.k.w.;.e.w.v.x.J.m.v.v.M.Z.m.h.M.S.v.;.h.h.<.h.*.*.<.m.D.:.<.<.:.%.*.b.D.D.6.5.,.6.6.<.i.9.",
"{ =.=.=.;.] =.;.;.q.=.q.q.<.<.=.;.{ ~ / =.m.q.q.w.m.>.x.>.*.w.=.<.;.=.;.w.<.>.w.x.x.<.x.n.x.b.@.x.6.x.x.b.b.6.x.9.:.b.:.:.<.9.5.",
"w.e.w.w.m.w.w.w.q.q.q.q.e.w.h.w.h.w.h.<.<.*.r.r.r.*.>.x.=.>.>.>.:.>.<.r.n.H b.v.<.x.M.J.n.>.<.b.n.J.D.b.x.b.x.r.6.<.6.:.F.D.5.6.",
";.w.w.h.q.:.;.e.w.e.A.K.h.h.h.w.h.h.w.e.w.q.h.r.w.>.>.<.<.<.>.<.<.<.m.w.@.<.=.>.x.A.Z.v.m.M.:.x.J.r.x.M.b.b.D.n.D.x.:.@.Y ` @.6.",
"=.w.q.M.q.C.;.j.e.h.h.w.e.*.w.q.e.e.j.h.m.M.w.*.<.w.M.C.m.w.m.m.x.M.Z.S.A.w.M.M.x.<.m.A.M.v.n.b.x.S.Y.S.M.h.h.M.v.y.x.+.F I ` %.",
"=.w.M.k.h.j.C.j.h.j.C.w.h.M.F.;.e.w.C.K.M.h.O.:.m.w.C.K.K.*.m.m.M.v.S.m.v.w.m.O.L.v.S.Y.Z.r.<.6.D.S.A.S.S.Z.J.M.J.6.&.y.m *.*.@.",
"j.j.w.w.j.j.C.k.C.k.C.K.A.C.C.M.M.m.e.C.v.S.<.O.h.C.*.v.Z.S.S.Y.n.6.<.L.A.M.J.n.:.`.J.S.L.S.n.D.D.n.A.m.M.M.A.L.J.9.{.2.Q ^.x.@.",
"q.q.w.q.w.h.q.w.h.w.h.M.M.A.e.h.j.K.M.L.A.;.D.*.Y.w./ <.Z.Y.S.m.<.<.S.M.>.m.v.x.v.r.*X_.M.v.v.x.n.S.*.L.S.J.D.6.J.:.#.4.8.5.-.n.",
"e.w.h.*.;.C.w.C.h.A.Y.h.h.q.e.q.h.m.m.m.m.w.5.@.w.` @.=.S.M.m.A.S.6.L.~.M.w.<.<.`.<._.S.F.v.<.F.L.J.J.J.v.J.x.6.}.5.5.2.&.9.i.G.",
"*.` w.M.M.K.q.m.w.Z.w.h.w.h.h.e.q.q.;.;.<.n.h.]. .H i.Y.Y.Y.M.m.J.>.<.L.S.v.*.J._.v.S.m.n.n.b.F.J.J.J.n.J.Q._._.D.y.E.a.(.%.y.G.",
"w.w.w.;.h.k.h.K.C.C.K.C.j.;.q.q.q.q.h.h.L.M.v.h.U.g.;.C.U.Y.Z.x.D._.J.v.v.Z.S.J.v.v.n.J.F.F.Z.J.Z.J.F.J.J.J.x.J.Q.D.i.W.i.G.<.x.",
"h.K.C.K.L.A.L.C.K.K.K.K.K.K.l.K.K.K.l.K.A.L.Z.Z.A.S.U.U.C.L.A.S.L.T.`.L.].T.T.Y.].Y.`.%XR.%X`.Y.`.C.w.].L.Y.].Y.L._._.Y.}.S.S.L.",
"=.} 0.0.q.q.;.q.;.q.q.q.w.q.w.j.q.w.;.h.q.w.w.w.;.;.w.<.<.=.<.<.h.*.F.r.<.=.<.r.<.w.r.m.w.m.n.h.v.x.x.v.<.v.B.n.c.c.v.Z.J.J.c.c.",
"' =.=.=.=.*.} =.*.] 0.e.j.q.Y =.;.w.e.C.] C.w.h.h.<.=.=.*.n.>.=.*.t.B.Z.M.m.m.<.h.M.M.m.w.m.<.<.;.>.w.h.h.<.h.h.<.x.>.n.x.B.c.Z.",
"] ' ] ^ ) ^ ^ =.*.q.0.=.} =.;.h.;.w.q.j.e.=.*.w.;.w.U.w.J x.5.( L q.O.<.r.>.M.<.>.;.M.m.m.M.w.M.M.h.h.h.w.w.h.m.x.w.>.<.c.n.n.n.",
"] ] ;.;.} =.[ 0.} } w.0.q.q.w.q.w.q.K.C.C.K.C.A.v.=.=.<.6.b.:.@.@.Y *.M.;.w.h.V.M.M.v.<.<.<.>.<.<.w.<.x.<.<.<.<.v.x.>.n.n.n.Y.Y.",
"q.} } } ' ' } q.w.j.| } } | q.j.g.| j.j.w.*.;.=.w.;.M.w._ 6.@.I h ^ ] { =.w.;.V.U.h.k.w.h.w.<.r.<.>.6.:.>.>.:.6.6.6.*.:.x.6.n.<.",
"E ) E ^ E ) ) ] =.} *.;.*.=.=.} ;.=.q.M.h.e.j.k.M.w.<.:.w.@.<.r.6.C.<.>.>.>.w.h.<.<.<.r.<.*.<.n.r.r.F.F.n.x.D.b.B.J.J.x.b.b.w.h.",
"] ] ) [ [ ;.=.0.} { 0.{ ^ q.w.w.w.q.q.j.j.=.e.w.<.w.A.M.O.:.w.:.r.h.w.h.C.A.L.A.w.m.w.=.>.m.<.:.w.r.v.<.h.w.n.n.v.v.n.J.J.J.J.<.",
"` *.q.=.=.=.} w.=.q.} =.[ q.q.w.w.w.w.q.j.C.K.w.w.e.<.A.@.Y @._.n.w.=.h.h.M.m.w.m.<.h.h.w.m.h.>.r.J.J <.F.x.v.M.v.v.J.J.J.J.n.J.",
"=.*.0.] *.w.0.w.w.j.j.} } ;.;.w.q.j.h.w.j.w.e.C.h.q.;.L.` ( *.<.k.S.V.w.m.Z.Z.h.M.M.w.M.M.Z.v.v.S.D.n.v Y.J.L.L.J.J.J.n.x.x.n.G.",
"=.*.0.] *.e.;.w.w.h.j.=.=.0.;.w.q.j.h.w.j.w.h.C.h.q.;.L.` ( *.<.k.S.V.w.m.Z.Z.h.M.M.w.M.M.Z.v.v.S.D.n.v Y.J.L.L.J.J.J.n.x.y.n.G.",
"C.e.q.^ w.q.w.0.l.l.K.K.l.w.k.k.k.w.w.j.j.j.h.M.w.q.m.<.>.Y _ <.h.h.;.A.A.h.h.h.M.M.w.h.w.v.M.v.m.Y.*.A.Z.h.m.S.m.n.B.J.Z.J.B.^.",
"q.0.q.=.q.w.*.=.q.w.e.j.e.j.m.M.M.M.m.M.h.w.M.m.m.C.<.*.@.6...F q.v.6.x.x.m.m.m.h.h.h.h.h.M.L.S.V.Y.Z.Z.J.J.S.Z.Z.n.J.J.J.J.v.G.",
"N N P m l l j j q q 2 w w w 8 1 < % @ O % % # # O O O O o X     .   . O O O + + O O O O o o o o o o o o o O O O O o O < # # < < ",
"{ h.h.h.j.0.;.h.h.q.q.e.e.m.w.h.m.m.%.z K <.m.M.x.n.m.M.V.h.<.c.B.b.x.A.V.A.A.V.J.V.J.B.v.h.<.<.h.x.n.v.b.y.b.y.n.n.y.c.y.n.G.%.",
"q.h.e.;.*.*.;.] *.*.=.q.e.j.w.e.w.>.%.;.o.w.m.h.m.Z.Z.Z.B.B.x.v.J.6.n.h.M.M.m.M.v.v.v.v.h.J.<.M.v.m.n.n.c.<.y.<.y.c.t.n.n.<.i.n.",
"w.w.q.=.=.} } =.=.=.w.q.q.<.w.m.w.<.( ;.@.m.].<.t.c.m.M.m.n.x.h.r.>.v.j.M.v.x.x.x.v.M.Z.v.Z.x.n.n.G.J.n.x.x.<.<.<.6.b.6.<.:.5.P ",
"<.=.q.=.w.e.q.q.;.;./ ;.{ <.w.q.<.*.` ( :.<.=.*.*.<.m.m.Z.<.J.w.S.v.w.v.B.Z.>.>.B.B.S.J.m.x.>.n.F.F.D.J.F.b.n.6.6.,.:.<.*.%.5.6.",
"] =.w.h.q.<.q.;.;.' >.;.<.q.q.;.<.<.x.{ <.<.<.<.<.x.m.v.v.v.m.M.v.v.m.v.v.x.t.h.h.h.<.:.n.x.<.x.<.<.<.6.b.n.x.n.b.6.6.6.<.%.G.n.",
"*.;.w.j.q.w.w.j.M.w.w.S.*.;.q.w.<.;.;.*.` h.m.x.<.;.<.h.<.<.w.h.Z.v.w.h.x.<.c.c.Z.B.J.J.v.n.n.n.J.D.n.n.D.n.b.<.*.:.6.<.<.5.^.B.",
"m.m.w.j.=.=.*.;.} } *.G *.*.>.w.w.<.h.h.h.h.Z.n.x.<.w.<.<.=.=.;.;.;.*.*.` <.>.>.<.t.n.J.S.n.J.J.D.Q.F.n.D.6.n.J.y.<.<.<.<.%.`.v.",
";.=.w.C.w.h.h.w.w.w.h.O.=.m.h.;.;.>.<.=.=.>.*.*.*.*.h.M.M.h.A.Z.M.J.x.>.*.*.;.;.-.<.h.v.B.n.D.J.J._.J.D.b.D.n.! :.>.-.n.n.F._.c.",
"v.h.M.M.C.M.h.h.h.w.w.=.M.m.e.w.w.M.r.m.m.n.*.>.:.*.Y.Y.`.Y.v.<.h.<.*.h.J.x.<.x.n.x.x.;.Z.` _.Q.x.n.n._._.^.J._.J.<.:.J.G._.J.Z.",
"Z.h.h.h.;.h.w.M.L.S.S.M.M.M.e.w.w.w.h.h.M.v.w.v.M.h.M.v.M.m.n.h./ <.V.v.<.n.*.x.x.<.n.n.J._.6.F.D.6.6.Z.B.I.J.n.v.G.<.B.c.J.J.I.",
"M.A.A.E V.V.M.M.S.M.A.h.W w.r.M.Z.Z.M.v.F.J.Z.Z.Z.h.v.h.v.S.A.S.Y.A.A.S.Z.S.Z.n.c.J.Z.Y.J.<.` _._.D.D._._.S.J.n.I.J.J.`.n.J.J.B.",
"O O # + O O O + O O + O o > , , < 1 2 1 p i 0 3 3 3 p p p f p a a p a k x j c M n C C A S g A Z V b B d r f f i i i r f 6 < i p "
};
