/* XPM */
static char *_439a6476e444c5abf42598ae4dff9e7oyUke0l0VKEvHr14[] = {
/* columns rows colors chars-per-pixel */
"64 64 38 1 ",
"  c None",
". c black",
"X c #090705",
"o c #0B0906",
"O c #0A060A",
"+ c #0C0B0C",
"@ c #4C444C",
"# c gray30",
"$ c #535353",
"% c #744674",
"& c #FF2F95",
"* c #FF3096",
"= c #FF3399",
"- c #FF389E",
"; c #FF6ED4",
": c #939393",
"> c #989494",
", c #969999",
"< c gray60",
"1 c #A49999",
"2 c gray64",
"3 c #C79898",
"4 c #D29999",
"5 c #FF9999",
"6 c #F4C393",
"7 c #F8C695",
"8 c #FECD96",
"9 c #FFCC99",
"0 c #FFD39E",
"q c #FFD6A0",
"w c #F492F4",
"e c #FF90F6",
"r c #FF9EF5",
"t c #FF96FE",
"y c #FF99FF",
"u c #FFA2FF",
"i c #C8C8C8",
"p c white",
/* pixels */
"                                                                ",
"                                                                ",
"                                                                ",
"                                                                ",
"                                                                ",
"                                                                ",
"                                                                ",
"                                                                ",
"                                                                ",
"                                                                ",
"                                                                ",
"                                                                ",
"                                                                ",
"                                                                ",
"                                                                ",
"                                                                ",
"                                                                ",
"                                                                ",
"                                                                ",
"                                                                ",
"                                                                ",
"                                                                ",
"                                                                ",
"                                                                ",
"                                                                ",
"                                                                ",
"                                                                ",
"                                                                ",
"                                                                ",
"                                                                ",
"                                                                ",
"                                                                ",
"                                                                ",
"                                                                ",
"                  ............................                  ",
"                ..9999999999999999999999999999..                ",
"              ..q0998tyttttyttttttttttttyy999900.               ",
"              ..9999tyyyyyyyy&*yyy**yyyytyty9999.               ",
"              ..99yty*=yyyyyyuyyyyuyyyyyyyyytt99.               ",
"              ..99ytyetyyyyyyyyyyyOOO%yyy-yyty99.  ...          ",
"              ..99yyyyyyyyyyyytyy.<<<$.tyyyyyy99..X<<<.         ",
"              ..99yyyyyyyyyyyyyyy.<<<$.wytyyyy99...<<<.         ",
"     ......   ..99yyyyyytyy*=yyyy.<<<<,..yyyyy99.<<<<<.         ",
"     ..<<$... ..99yytyyyyyyyyyyyy.<<<<><<.......<><<<<.         ",
"     ...<<<.....99yyyyt=;yytyyyyy.,<<<<<><,<<<<<<<<<<,.         ",
"       ..@<<<...99yyyyyyyytyy==..,<<<<<<<<<<,<<,,<<<,<<..       ",
"        ...:<<..99yy=yyyyyyyyyy..<<,<ipX.<<<<<<<,pp.$<<..       ",
"          ......99yyyyyyyyyyyyy..<<,,$...<<<<<..<...$<<..       ",
"             ...99yyyyyyyy==yyy..<,554<<<<<<<<<,<<<<455..       ",
"              ..9999y=-yyyyyyyy..<,553<..,<<..,<<.X<455..       ",
"              ..9999y==yyyyyyyy..<,554<..2<<..<<<..<455..       ",
"              ..66997yyyryyyryyyyoo:<<<+XXXXXXXXXX+<>:.         ",
"             .....00000q000q0000q00.22<222<<<2<22211#.          ",
"           ..2<><<..................................            ",
"           ..2<2.... ..<<1..        .#<12.  ..<22..             ",
"           .......   .....            ....    ...               ",
"                                                                ",
"                                                                ",
"                                                                ",
"                                                                ",
"                                                                ",
"                                                                ",
"                                                                ",
"                                                                "
};
