/* XPM */
static char *_cd80f1eb61c40a2f046f4a59f349131znnddW0tyiJFVyUJ[] = {
/* columns rows colors chars-per-pixel */
"64 64 131 2 ",
"   c #3D91C4",
".  c #3E95C7",
"X  c #3E9BC5",
"o  c #3D9FC7",
"O  c #3992CA",
"+  c #3D9ECB",
"@  c #3F9FCD",
"#  c #3CA3C3",
"$  c #3CA3C5",
"%  c #3FA1C6",
"&  c #3BA5C4",
"*  c #3CA0CB",
"=  c #3DA4C8",
"-  c #3EA5CE",
";  c #3FA6D2",
":  c #4096C6",
">  c #4097C9",
",  c #419FCD",
"<  c #429FD3",
"1  c #449ED1",
"2  c #40A2C7",
"3  c #40A3CB",
"4  c #43A1CC",
"5  c #41A2CF",
"6  c #45A2CE",
"7  c #41A4CC",
"8  c #45A7CD",
"9  c #49A6CF",
"0  c #46AFCA",
"q  c #43A8CC",
"w  c #43AACE",
"e  c #45AACF",
"r  c #45ACCD",
"t  c #48AECF",
"y  c #45B2CF",
"u  c #48B2CB",
"i  c #42A2D2",
"p  c #44A3D0",
"a  c #44A1D3",
"s  c #43A4D1",
"d  c #43A5D5",
"f  c #45A7D4",
"g  c #46A7D4",
"h  c #43AAD2",
"j  c #44AAD2",
"k  c #46AED1",
"l  c #43A8D4",
"z  c #46AAD5",
"x  c #46A9D7",
"c  c #49A9D0",
"v  c #4BADD3",
"b  c #48ABD4",
"n  c #49AFD5",
"m  c #49AFD6",
"M  c #4DAED9",
"N  c #46B3D0",
"B  c #4BB3D0",
"V  c #48B0D3",
"C  c #4BB2D2",
"Z  c #4BB7D3",
"A  c #4DB5D3",
"S  c #4CB5D5",
"D  c #4BB9D1",
"F  c #4CB9D7",
"G  c #4BB1D9",
"H  c #4CB2DA",
"J  c #4CB4D8",
"K  c #4EB4DB",
"L  c #4FB0DD",
"P  c #4EB5DF",
"I  c #4EB7DF",
"U  c #4FBBD8",
"Y  c #51B4D5",
"T  c #51B9D3",
"R  c #50B8D5",
"E  c #53BAD5",
"W  c #51B3DB",
"Q  c #52B7DB",
"!  c #55B6DB",
"~  c #51B4DD",
"^  c #50B6DD",
"/  c #53B6DF",
"(  c #52BBDB",
")  c #52BED8",
"_  c #56BEDA",
"`  c #52B9DD",
"'  c #56B8DF",
"]  c #53BFDC",
"[  c #56BFDD",
"{  c #5ABCDF",
"}  c #51B6E2",
"|  c #54B7E1",
" . c #53B9E1",
".. c #57B9E1",
"X. c #55BFE1",
"o. c #5ABCE1",
"O. c #5CBCE2",
"+. c #5AB9E7",
"@. c #55C0D8",
"#. c #54C1DE",
"$. c #54C4DC",
"%. c #5AC2DF",
"&. c #5BC5DE",
"*. c #5BCBD8",
"=. c #5CCCDB",
"-. c #58C9DF",
";. c #5DCCDE",
":. c #5FD0DF",
">. c #60CCDF",
",. c #57C1E0",
"<. c #53C5E0",
"1. c #5AC3E1",
"2. c #5FC1E6",
"3. c #5BC7E4",
"4. c #5BC9E0",
"5. c #5DCBE1",
"6. c #5CCDE2",
"7. c #5BCAE5",
"8. c #5CC9E5",
"9. c #5ECEE5",
"0. c #5FCEE7",
"q. c #5BC3E8",
"w. c #5CCBE8",
"e. c #5FD0E2",
"r. c #60C0E6",
"t. c #62CAE2",
"y. c #60CBE4",
"u. c #60CDE4",
"i. c #63CEE7",
"p. c #62D0E1",
"a. c #61D0E9",
/* pixels */
"; ; k k k k k k k k k M M M M 5 5 5 5 5 W W W W 5 5 5 5 5 f f f p 3 3 3 3 3 3 3 3 3 p p p p i p p p < 1 1 1 1 8.8.8.8.8.<.<.<.<.",
"; ; k k k k k k k k k M M M M 5 5 5 5 5 W W W W 5 5 5 5 5 f f f p 3 3 3 3 3 3 3 3 3 p p p p p p p p < 1 1 1 1 8.8.8.8.8.<.<.<.<.",
"; ; k k k k k k k k k M M M M 5 5 5 5 5 W W W W 5 5 5 5 5 f f f f 3 3 3 3 3 3 3 3 3 p p p p i i p 1 < 1 1 1 1 8.8.8.8.8.<.<.<.<.",
"h h J J J J q.q.q.q.q.q.q.q.q.5 5 5 5 5 W W W W 8 8 8 8 8 W W W W k k k k p p p p p 7 7 7 7 J J J H J 1 1 1 1 * * * * * [ [ [ [ ",
"h h J J J J q.q.q.q.q.q.q.q.q.5 5 5 5 5 W W W W 8 8 8 8 8 W W W W k k k k p p p p p 7 7 7 7 J J J J J 1 1 1 1 * * * * * #.#.#.#.",
"l l 9.9.9.9.U U U U U f f f f f f f f f 5 5 3 3 i i i i i i i i i 5 5 5 5 3 3 3 5 5 b b c c b b b b b w.w.w.w.z z z z z z z z z ",
"l l 9.9.9.9.U U U U U f f f f f f f f f 5 5 5 3 i i i i i i i i i 5 5 5 5 3 3 3 5 3 b b b b b b b b b w.w.w.w.z z z z z z z z z ",
"l l 9.9.9.9.U U U U U f f f f f f f f f 5 5 5 3 i i i i i i i i i 5 5 5 5 3 3 3 5 5 b b b b b b b b b w.w.w.w.z z z z z z z z z ",
"6.6.-.-.-.-.( ( ( ( ( e e e e s s s s s M M M M i i i 5 5 e e e e o.o.o.o.5 5 5 5 5 + + + + d d d d d , , , , q.q.q.q.q.L L L L ",
"6.6.-.-.-.-.( ( ( ( ( e e e e s s s s s M M M M i i i i 5 e e e e o.o.o.o.5 5 5 5 5 + + + + d d d d d , , , , q.q.q.q.q.L L L L ",
"6.6.-.-.-.-.( ( ( ( ( e e e e s s s s s M M M M i i i i i e e e e o.o.o.o.5 5 5 5 5 + + + + d d d d d , , , , q.q.q.q.q.L L L L ",
"Q Q 7.7.7.7.7.7.7.7.7.` ` ` ` 5 5 5 5 5 M M M M 5 5 5 5 5 Q Q Q Q L L L M M M L L L i i i i i i i i i , , , , 5 5 5 5 5 5 5 7 7 ",
"Q Q 7.7.7.7.7.7.7.7.7.` ` ` ` 5 5 5 5 5 M M M M 5 5 5 5 5 W W W Q L L L L L L L L L i i i i i i i i i , , , , 5 5 5 5 5 7 7 7 7 ",
"Q Q 7.7.7.7.7.7.7.7.7.` ` ` ` 5 5 5 5 5 M M M M 5 5 5 5 5 W W W Q L L L L L L L L L i i i i i i i i i , , , , 5 5 5 5 5 7 7 7 7 ",
"j j J J J J ) ) ) ) ) 4.4.4.4.f f f f f 5 5 5 5 i i 5 5 5 5 5 5 5 2.2.2.2.5 5 5 5 5 5 5 5 5 i i i i i @ @ @ @ 5 5 5 5 5 p p p p ",
"j j J J J J ) ) ) ) ) 4.4.4.4.f f f f f 5 5 5 5 i i 5 5 5 5 5 5 5 2.2.2.2.5 5 5 5 5 5 5 5 5 i i i i i @ @ @ @ 5 5 5 5 5 p p p p ",
"j j J J P P ) ) ) ) ) 4.4.4.4.f f f f f 5 5 5 5 i i i i i 5 5 5 5 2.2.2.2.5 5 5 5 5 5 5 5 5 i i i i i @ @ @ @ 5 5 5 5 5 p p p p ",
"j j J J J J $.$.$.$.$.4.4.4.4.B B B B B @ @ @ @ L L L L L 5 5 5 5 5 5 5 5 5 5 5 5 5 5 5 5 5 5 5 5 5 5 i i i i 2.2.2.2.2.p p p p ",
"j j J J J J $.$.$.$.$.4.4.4.4.B B B B B @ @ @ @ L L L L L 5 5 5 5 5 5 5 5 5 5 5 5 5 5 5 5 5 5 5 5 5 5 i i i i 2.2.2.2.2.p p p p ",
"j j J J J J $.$.$.$.$.4.4.4.4.B B B B B @ @ @ @ L L L L L 5 5 5 5 5 5 5 5 5 5 5 5 5 5 5 5 5 5 5 5 5 5 i i i i 2.2.2.2.2.p p p p ",
"G G J J J J J J J J J ,.,.,.,.= = = = = w w w w @ @ @ @ @ 5 5 5 5 5 5 5 5 5 5 5 5 5 5 5 5 5 5 5 5 5 5 5 5 5 5 5 5 5 5 5 o.o.o.o.",
"G G J J J J J J J J J ,.,.,.,.= = = = = w w w w @ @ @ @ @ 5 5 5 5 5 5 5 5 5 5 5 5 5 5 5 5 5 5 5 5 5 5 5 5 5 5 5 5 5 5 5 o.o.o.o.",
"G G J J J J P P P P J ,.,.,.,.= = = = = w w w w @ @ @ @ @ 5 5 5 5 5 5 5 5 5 5 5 5 5 5 5 5 5 5 5 5 5 5 5 5 5 5 5 5 5 5 5 o.o.o.o.",
"4.4.0 0 0 0 ` ` ` ( ( H H H H #.#.#.#.#.w w w w H H H H H i i i i i i i i 5 5 5 5 5 5 5 5 5 % % % % % 5 5 5 5 @ @ @ @ @ O O O O ",
"4.4.0 0 0 0 ( ( ( ( ( H H H H #.#.#.#.#.w w w w H H H H H i i i i i i i i 5 5 5 5 5 5 5 5 5 % % % % % 5 5 5 5 @ @ @ @ @ O O O O ",
"4.4.0 0 0 0 ( ( ( ( ( H H H H #.#.#.#.#.w w w w H H H H H i i i i i i i i 5 5 5 5 5 5 5 5 5 % % % % $ 5 5 5 5 @ @ @ @ @ O O O O ",
"5.4.9.9.9.9.N N N N N } } } } } } } } } 5.5.5.5.G G G G G G G G G f f f f 5 5 5 i i @ , @ @ @ @ @ @ @ e w w w 5 , , , , 5 5 5 5 ",
"5.4.9.9.9.9.N N N N N } } } } } } } } } 5.5.5.5.G G G G G G G G G f f f f 5 5 5 i i @ @ @ @ @ @ @ @ , e w w w 5 , , , , 5 5 5 5 ",
"4.4.9.9.9.9.N N N N N } } } } } } } } } 5.5.5.5.G G G G G G G G G f f f f i i i i i @ @ , , , , @ @ @ w w 7 w , 5 5 5 , , , 5 5 ",
"U U @.@.@.@.3.3.3.3.3.6.5.5.5.y y y y y ;.;.;.;.5.5.5.5.5.p p p p 3 3 3 3 5 5 5 5 5 5 5 5 5 p p 5 i i O.O.O.O.B B B B B p f f f ",
"U U @.@.#.#.3.3.3.3.3.5.5.5.5.y y y y y ;.;.;.;.5.5.5.5.5.p p p p 3 3 3 3 5 5 5 5 5 5 5 5 5 i 5 5 5 i O.O.O.O.B B B B B p p f f ",
"J J ^ ^ ^ ^ 3.3.3.3.3.J J J J F F F F F ;.;.;.;.y.y.y.y.y.@.@.@.@.w w w w 5 5 5 5 5 5 5 5 5 i 5 5 5 i O.O.O.O.B B B B B p p f f ",
"J J ^ ^ ^ ^ 3.3.3.3.3.J J Q Q F F F F F ;.;.;.;.y.y.y.y.y.@.@.@.@.w w w w 5 5 5 5 5 5 5 5 5 1.1.1.1.1.O.O.O.O.3 3 3 3 3 8 8 f f ",
"J J ^ ^ ^ ^ 3.3.3.3.3.J J J Q U F F F F ;.;.;.;.y.y.y.y.y.@.@.@.@.w w w w 5 5 5 5 5 5 5 5 5 1.1.1.1.1.O.O.O.O.3 3 3 3 3 f f f f ",
"' ' J J J J ^ ^ ^ ^ ^ ( ( ( ( ( ( ( ( ( X.X.X.X.G G G G G - - - - e.e.e.e.& & & & & i i 5 5 5 5 i i i T T T T n v n n v v v v v ",
"' ' J J J J ^ ^ ^ ^ ^ ( ( ( ( ( ( ( ( ( X.X.X.X.G G G G G - - - - e.e.e.e.& & & & & i i 5 5 5 5 i i i T T T T n v v v v v v v v ",
"' ' J J J J ^ ^ ^ ^ ^ ( ( U U Q ( ( ( ( X.X.X.X.G G G H H - - - - e.e.e.e.& & & & & i i i i i i 6 6 6 T T T T v v v n n n n v v ",
"' ' s s s s P P J J J 7 7 7 5 ^ ^ ^ ^ ^ n n n n F F F F R - - - - J J J J :.:.:.:.:.,.,.,.,.< < < < < 5 5 5 5 u u u u u J J Q Q ",
"' ' f s s h P P J J J 7 5 5 5 ^ ^ ^ ^ ^ n n n n F F F F R - - - - J J J ( p.p.:.:.:.,.,.,.1.< < < < < 5 5 5 6 u u u u u J J J Q ",
"' ' f s s h P P P J J 7 7 5 5 ^ ^ ^ ^ ^ n n n n F F F F R - - - - J J J ( p.p.:.:.:.,.,.,.1.< < < < < 5 5 5 6 u u u u u J J J J ",
"5 5 * * * * * * * * * Q Q Q Q w w w w w B B k k n B B B B &.&.&.&.Z Z Z Z Z Z Z Z Z ;.;.;.;.% % % % % 7 7 7 6 R R R R R t.t.t.t.",
"5 5 * * * * * * * * * ^ Q Q Q w w w w w B B n n n B B B B &.&.&.&.Z Z Z Z Z Z Z Z Z ;.;.;.;.% % % % % 7 5 7 5 R R R R R t.t.t.t.",
"5 3 * * * * + * * * * ^ Q Q Q w h w h h B n n n B B B B B &.&.&.&.Z Z Z Z Z Z Z Z Z ;.;.;.;.% % % % % 6 7 7 7 R R R R R t.t.t.t.",
"i i 5 5 5 5 Y Y R R R 1.%.%.%.`  .} }  .^ ^ ^ ^ J J J J J S S S S #.#.#.#.p.p.p.p.p.;.;.:.:.=.=.=.=.=.R F F R _ _ _ _ _ R R R R ",
"i i 5 3 5 5 Y Y R R R 1.%.%.%.` ` ` `  .^ ^ ^ ^ J J J J J S S S S #.#.#.#.p.p.p.p.p.:.;.:.:.=.=.=.=.=.R F F F _ _ _ _ _ R R R R ",
"i i 5 3 5 5 Y Y R R R 1.%.%.%.` ` ` ` ` ^ ^ ^ ^ J J J J J S S S S #.#.#.#.p.p.p.p.p.:.;.:.:.=.=.=.=.=.R F F F _ _ _ _ _ R R R R ",
"< < f f f f p p p p p B B B B B B B B B H H H H 8 8 7 8 8 S S S S [ [ [ [ ` ` ` ` ` ;.;.;.;.6.6.6.6.6.6.;.;.6.i.i.i.i.i.R R R R ",
"< < f f f f p p p p p B B B B B B B B B H H H H 8 8 8 8 8 S S S S [ [ [ [ ` ` ` ` ` ;.;.;.;.6.6.6.6.6.;.;.;.6.i.i.i.i.i.R R R R ",
"< < f f f f p p p p p B B B B B B B B B H H H H 7 7 7 7 7 S S S S [ [ [ [ ` ` ` ` ` ;.;.;.;.6.6.6.6.6.i.i.i.i.i.i.i.i.i.R R R R ",
"c c +.+.+.+.( ( Q ( Q , , , 6 # # # # # s s s s U ( P P ` ` ` ` ` ( ` ^ ` ` ` ` ` ` k k k k i.i.6.6.i.[ [ [ [ >.>.>.>.>.6.6.i.6.",
"c c +.+.+.+.( ( ( ( ( 6 , , , # # # # # s s s s ( ( ( ( ` ` ` ` ` ^ ^ ^ ^ ^ ` ` ` ` k k k k i.i.6.6.6.[ [ [ [ >.>.>.>.>.6.6.6.;.",
"c c +.+.+.+.( ( ( ( ( 6 , , 6 # # # # # s s s s ( ( ( ( ` ` ` ' ` ^ ^ ^ ^ ` ` ` ` ` k k k k i.i.6.6.i.[ [ [ [ >.>.>.>.>.6.6.;.;.",
"    ........Q Q Q Q ( 1.1.1.1.! ! ! ! ! h s h h 5 5 5 5 5 a.a.a.a. . . . .n n n n n | | | | f f f f f [ [ [ [ A A A A A *.*.*.*.",
"    ........Q Q Q Q ( 1.1.1.1.! ! ! ! ! h h h h 5 5 5 5 5 a.a.a.a. . . . .n n n n n | | | | f f f f f [ [ [ [ A A A A A *.*.*.*.",
"    ........Q Q Q Q Q 1.1.1.1.! ! ! ! ! s s h h 5 5 5 5 5 a.a.a.a. . . . .n n n n n | | | | f f f f f [ [ [ [ A A A A A *.*.*.*.",
": : X X X X o o o o o { { { { { { { { { % % % % 6 6 6 6 6 6 6 6 6 ) ) ) ) ` ` ` ^ ^ f f f f f f f f f f f f f r r r r r r r r r ",
": : X X X X o o o o o { { { { { { { { { % % % % 6 6 6 6 6 6 6 6 6 ) ) ) ) ` ` ` ` ` f f f f f f f f f f f f f e e e e e r r r r ",
": : X X X X o o o o o { { { { { { { { { % % % % 6 6 6 6 6 6 6 6 6 ) ) ) ) ` ` ` ` ` f f f f f f f f f f f f f e e e r e r r r r ",
": : : : : : ! ! ! ! ! z z z z 2 2 2 2 2 3 3 3 3 Y Y Y Y Y i.i.i.i.;.;.;.;.Q Q Q Q Q s s s s f f f f f f f f f f f f f f * * * % ",
": : : : : : ! ! ! ! ! z z z z 2 2 2 2 2 3 3 3 3 Y Y Y Y Y i.i.i.i.;.;.;.;.Q Q Q Q Q s s s s f f f f f f f f f f f f f f % * * % ",
"@ @ . . . . . . . . . W W W W 3 5 5 3 3 3 3 3 3 r.r.r.r.r.8 8 8 8 ] ] ] ] ] ] ] ] ] j j j j w w 7 7 w f f f f 8 8 8 f f f f s s ",
"[ @ . . . . . . . . . W W W W 5 5 5 3 3 3 3 3 3 r.r.r.r.r.8 8 8 8 ] ] ] ] ] ] ] ] ] j j j j w w 7 7 w f f f f 8 f 8 f f 8 8 7 7 ",
"[ @ . . . . . . . . . W W W W 3 5 5 5 5 3 3 3 3 r.r.r.r.r.8 8 8 8 ] ] ] ] ] ] ] ] ] h h j j w w 7 7 w f f f f 8 f f f f 8 7 8 7 ",
"# # # # # # > > > > > > > > > 6 6 6 6 6 9 9 9 9 O.O.O.O.O.5 5 5 5 3.3.3.r.w w w w w r r t t D D D D D ^ ^ ^ Q s s s s s ` ` ` J "
};
